<mxfile host="Electron" modified="2023-12-10T11:31:47.285Z" agent="Mozilla/5.0 (Windows NT 10.0; Win64; x64) AppleWebKit/537.36 (KHTML, like Gecko) draw.io/22.1.2 Chrome/114.0.5735.289 Electron/25.9.4 Safari/537.36" etag="XG3HGMR9Be_GTxy7NFmS" version="22.1.2" type="device">
  <diagram name="Side-1" id="Ugd9o9-Neq1cC5inKinU">
    <mxGraphModel dx="2338" dy="2172" grid="1" gridSize="10" guides="1" tooltips="1" connect="1" arrows="1" fold="1" page="1" pageScale="1" pageWidth="827" pageHeight="1169" math="0" shadow="0">
      <root>
        <mxCell id="0" />
        <mxCell id="1" parent="0" />
        <mxCell id="OBwwVleQ9KsO71YRy60R-56" style="edgeStyle=orthogonalEdgeStyle;rounded=0;orthogonalLoop=1;jettySize=auto;html=1;fontFamily=Helvetica;fontSize=12;fontColor=default;" parent="1" source="OBwwVleQ9KsO71YRy60R-1" edge="1">
          <mxGeometry relative="1" as="geometry">
            <mxPoint x="200" y="360" as="targetPoint" />
          </mxGeometry>
        </mxCell>
        <mxCell id="OBwwVleQ9KsO71YRy60R-76" value="har" style="edgeLabel;html=1;align=center;verticalAlign=middle;resizable=0;points=[];fontSize=12;fontFamily=Helvetica;fontColor=default;" parent="OBwwVleQ9KsO71YRy60R-56" vertex="1" connectable="0">
          <mxGeometry x="-0.1303" y="-1" relative="1" as="geometry">
            <mxPoint as="offset" />
          </mxGeometry>
        </mxCell>
        <mxCell id="OBwwVleQ9KsO71YRy60R-78" value="1" style="edgeLabel;html=1;align=center;verticalAlign=middle;resizable=0;points=[];fontSize=12;fontFamily=Helvetica;fontColor=default;" parent="OBwwVleQ9KsO71YRy60R-56" vertex="1" connectable="0">
          <mxGeometry x="0.5248" y="3" relative="1" as="geometry">
            <mxPoint y="1" as="offset" />
          </mxGeometry>
        </mxCell>
        <mxCell id="OBwwVleQ9KsO71YRy60R-79" value="0..*" style="edgeLabel;html=1;align=center;verticalAlign=middle;resizable=0;points=[];fontSize=12;fontFamily=Helvetica;fontColor=default;" parent="OBwwVleQ9KsO71YRy60R-56" vertex="1" connectable="0">
          <mxGeometry x="-0.8172" relative="1" as="geometry">
            <mxPoint as="offset" />
          </mxGeometry>
        </mxCell>
        <mxCell id="OBwwVleQ9KsO71YRy60R-1" value="Medlem" style="swimlane;fontStyle=1;align=center;verticalAlign=top;childLayout=stackLayout;horizontal=1;startSize=26;horizontalStack=0;resizeParent=1;resizeParentMax=0;resizeLast=0;collapsible=1;marginBottom=0;whiteSpace=wrap;html=1;" parent="1" vertex="1">
          <mxGeometry x="120" y="184" width="160" height="60" as="geometry" />
        </mxCell>
        <mxCell id="OBwwVleQ9KsO71YRy60R-2" value="Stamoplsyninger&amp;nbsp;" style="text;strokeColor=none;fillColor=none;align=left;verticalAlign=top;spacingLeft=4;spacingRight=4;overflow=hidden;rotatable=0;points=[[0,0.5],[1,0.5]];portConstraint=eastwest;whiteSpace=wrap;html=1;" parent="OBwwVleQ9KsO71YRy60R-1" vertex="1">
          <mxGeometry y="26" width="160" height="34" as="geometry" />
        </mxCell>
        <mxCell id="OBwwVleQ9KsO71YRy60R-73" style="edgeStyle=orthogonalEdgeStyle;rounded=0;orthogonalLoop=1;jettySize=auto;html=1;fontFamily=Helvetica;fontSize=12;fontColor=default;" parent="1" source="OBwwVleQ9KsO71YRy60R-11" edge="1">
          <mxGeometry relative="1" as="geometry">
            <mxPoint x="-200.00000000000023" y="380" as="targetPoint" />
          </mxGeometry>
        </mxCell>
        <mxCell id="OBwwVleQ9KsO71YRy60R-89" value="står for" style="edgeLabel;html=1;align=center;verticalAlign=middle;resizable=0;points=[];fontSize=12;fontFamily=Helvetica;fontColor=default;" parent="OBwwVleQ9KsO71YRy60R-73" vertex="1" connectable="0">
          <mxGeometry x="-0.2109" y="5" relative="1" as="geometry">
            <mxPoint as="offset" />
          </mxGeometry>
        </mxCell>
        <mxCell id="OBwwVleQ9KsO71YRy60R-112" value="1" style="edgeLabel;html=1;align=center;verticalAlign=middle;resizable=0;points=[];fontSize=12;fontFamily=Helvetica;fontColor=default;" parent="OBwwVleQ9KsO71YRy60R-73" vertex="1" connectable="0">
          <mxGeometry x="-0.9216" relative="1" as="geometry">
            <mxPoint as="offset" />
          </mxGeometry>
        </mxCell>
        <mxCell id="OBwwVleQ9KsO71YRy60R-113" value="1..*" style="edgeLabel;html=1;align=center;verticalAlign=middle;resizable=0;points=[];fontSize=12;fontFamily=Helvetica;fontColor=default;" parent="OBwwVleQ9KsO71YRy60R-73" vertex="1" connectable="0">
          <mxGeometry x="0.6387" relative="1" as="geometry">
            <mxPoint as="offset" />
          </mxGeometry>
        </mxCell>
        <mxCell id="OBwwVleQ9KsO71YRy60R-11" value="Træner" style="swimlane;fontStyle=1;align=center;verticalAlign=top;childLayout=stackLayout;horizontal=1;startSize=26;horizontalStack=0;resizeParent=1;resizeParentMax=0;resizeLast=0;collapsible=1;marginBottom=0;whiteSpace=wrap;html=1;" parent="1" vertex="1">
          <mxGeometry x="-280" y="184" width="160" height="52" as="geometry" />
        </mxCell>
        <mxCell id="OBwwVleQ9KsO71YRy60R-40" value="&lt;b&gt;Svømmeresultater&lt;/b&gt;" style="swimlane;fontStyle=0;childLayout=stackLayout;horizontal=1;startSize=26;fillColor=none;horizontalStack=0;resizeParent=1;resizeParentMax=0;resizeLast=0;collapsible=1;marginBottom=0;whiteSpace=wrap;html=1;strokeColor=#0F8B8D;fontColor=#143642;labelBackgroundColor=none;" parent="1" vertex="1">
          <mxGeometry x="-280" y="385" width="140" height="146" as="geometry" />
        </mxCell>
        <mxCell id="OBwwVleQ9KsO71YRy60R-41" value="Svømmedisciplin" style="text;html=1;align=center;verticalAlign=middle;resizable=0;points=[];autosize=1;strokeColor=none;fillColor=none;fontColor=#143642;labelBackgroundColor=none;" parent="OBwwVleQ9KsO71YRy60R-40" vertex="1">
          <mxGeometry y="26" width="140" height="30" as="geometry" />
        </mxCell>
        <mxCell id="OBwwVleQ9KsO71YRy60R-42" value="Stævne" style="text;html=1;align=center;verticalAlign=middle;resizable=0;points=[];autosize=1;strokeColor=none;fillColor=none;fontColor=#143642;labelBackgroundColor=none;" parent="OBwwVleQ9KsO71YRy60R-40" vertex="1">
          <mxGeometry y="56" width="140" height="30" as="geometry" />
        </mxCell>
        <mxCell id="OBwwVleQ9KsO71YRy60R-43" value="Placering" style="text;html=1;align=center;verticalAlign=middle;resizable=0;points=[];autosize=1;strokeColor=none;fillColor=none;fontColor=#143642;labelBackgroundColor=none;" parent="OBwwVleQ9KsO71YRy60R-40" vertex="1">
          <mxGeometry y="86" width="140" height="30" as="geometry" />
        </mxCell>
        <mxCell id="OBwwVleQ9KsO71YRy60R-44" value="Tid" style="text;html=1;align=center;verticalAlign=middle;resizable=0;points=[];autosize=1;strokeColor=none;fillColor=none;fontColor=#143642;labelBackgroundColor=none;" parent="OBwwVleQ9KsO71YRy60R-40" vertex="1">
          <mxGeometry y="116" width="140" height="30" as="geometry" />
        </mxCell>
        <mxCell id="OBwwVleQ9KsO71YRy60R-45" value="&lt;b&gt;Hold&lt;/b&gt;" style="swimlane;fontStyle=0;childLayout=stackLayout;horizontal=1;startSize=26;fillColor=none;horizontalStack=0;resizeParent=1;resizeParentMax=0;resizeLast=0;collapsible=1;marginBottom=0;whiteSpace=wrap;html=1;strokeColor=#0F8B8D;fontColor=#143642;labelBackgroundColor=none;" parent="1" vertex="1">
          <mxGeometry x="-280" y="50" width="140" height="56" as="geometry" />
        </mxCell>
        <mxCell id="OBwwVleQ9KsO71YRy60R-67" style="edgeStyle=orthogonalEdgeStyle;rounded=0;orthogonalLoop=1;jettySize=auto;html=1;exitX=0.5;exitY=1;exitDx=0;exitDy=0;fontFamily=Helvetica;fontSize=12;fontColor=default;" parent="1" source="OBwwVleQ9KsO71YRy60R-46" edge="1">
          <mxGeometry relative="1" as="geometry">
            <mxPoint x="-210.38461538461524" y="40" as="targetPoint" />
          </mxGeometry>
        </mxCell>
        <mxCell id="OBwwVleQ9KsO71YRy60R-93" value="1..*" style="edgeLabel;html=1;align=center;verticalAlign=middle;resizable=0;points=[];fontSize=12;fontFamily=Helvetica;fontColor=default;" parent="OBwwVleQ9KsO71YRy60R-67" vertex="1" connectable="0">
          <mxGeometry x="-0.8675" relative="1" as="geometry">
            <mxPoint y="-1" as="offset" />
          </mxGeometry>
        </mxCell>
        <mxCell id="OBwwVleQ9KsO71YRy60R-118" value="1" style="edgeLabel;html=1;align=center;verticalAlign=middle;resizable=0;points=[];fontSize=12;fontFamily=Helvetica;fontColor=default;" parent="OBwwVleQ9KsO71YRy60R-67" vertex="1" connectable="0">
          <mxGeometry x="0.6423" y="5" relative="1" as="geometry">
            <mxPoint as="offset" />
          </mxGeometry>
        </mxCell>
        <mxCell id="OBwwVleQ9KsO71YRy60R-46" value="&lt;b&gt;Konkurrencesvømmer&lt;/b&gt;" style="swimlane;fontStyle=0;childLayout=stackLayout;horizontal=1;startSize=26;fillColor=none;horizontalStack=0;resizeParent=1;resizeParentMax=0;resizeLast=0;collapsible=1;marginBottom=0;whiteSpace=wrap;html=1;strokeColor=#0F8B8D;fontColor=#143642;labelBackgroundColor=none;" parent="1" vertex="1">
          <mxGeometry x="-280" y="-124" width="140" height="56" as="geometry" />
        </mxCell>
        <mxCell id="OBwwVleQ9KsO71YRy60R-61" style="edgeStyle=orthogonalEdgeStyle;rounded=0;orthogonalLoop=1;jettySize=auto;html=1;fontFamily=Helvetica;fontSize=12;fontColor=default;exitX=0.75;exitY=0;exitDx=0;exitDy=0;" parent="1" edge="1">
          <mxGeometry relative="1" as="geometry">
            <mxPoint x="485" y="106" as="sourcePoint" />
            <mxPoint x="230" y="-180" as="targetPoint" />
          </mxGeometry>
        </mxCell>
        <mxCell id="OBwwVleQ9KsO71YRy60R-90" value="har" style="edgeLabel;html=1;align=center;verticalAlign=middle;resizable=0;points=[];fontSize=12;fontFamily=Helvetica;fontColor=default;" parent="OBwwVleQ9KsO71YRy60R-61" vertex="1" connectable="0">
          <mxGeometry x="0.1404" relative="1" as="geometry">
            <mxPoint as="offset" />
          </mxGeometry>
        </mxCell>
        <mxCell id="OBwwVleQ9KsO71YRy60R-91" value="1" style="edgeLabel;html=1;align=center;verticalAlign=middle;resizable=0;points=[];fontSize=12;fontFamily=Helvetica;fontColor=default;" parent="OBwwVleQ9KsO71YRy60R-61" vertex="1" connectable="0">
          <mxGeometry x="-0.5625" y="-1" relative="1" as="geometry">
            <mxPoint as="offset" />
          </mxGeometry>
        </mxCell>
        <mxCell id="OBwwVleQ9KsO71YRy60R-92" value="1" style="edgeLabel;html=1;align=center;verticalAlign=middle;resizable=0;points=[];fontSize=12;fontFamily=Helvetica;fontColor=default;" parent="OBwwVleQ9KsO71YRy60R-61" vertex="1" connectable="0">
          <mxGeometry x="0.9236" y="-1" relative="1" as="geometry">
            <mxPoint as="offset" />
          </mxGeometry>
        </mxCell>
        <mxCell id="OBwwVleQ9KsO71YRy60R-47" value="&lt;b&gt;Kasser&lt;/b&gt;" style="swimlane;fontStyle=0;childLayout=stackLayout;horizontal=1;startSize=26;fillColor=none;horizontalStack=0;resizeParent=1;resizeParentMax=0;resizeLast=0;collapsible=1;marginBottom=0;whiteSpace=wrap;html=1;labelBackgroundColor=none;strokeColor=#0F8B8D;fontColor=#143642;" parent="1" vertex="1">
          <mxGeometry x="400" y="80" width="140" height="56" as="geometry" />
        </mxCell>
        <mxCell id="OBwwVleQ9KsO71YRy60R-66" style="edgeStyle=orthogonalEdgeStyle;rounded=0;orthogonalLoop=1;jettySize=auto;html=1;exitX=0.5;exitY=1;exitDx=0;exitDy=0;fontFamily=Helvetica;fontSize=12;fontColor=default;" parent="1" source="OBwwVleQ9KsO71YRy60R-49" edge="1">
          <mxGeometry relative="1" as="geometry">
            <mxPoint x="180.38461538461524" y="180" as="targetPoint" />
          </mxGeometry>
        </mxCell>
        <mxCell id="OBwwVleQ9KsO71YRy60R-82" value="1&lt;br&gt;" style="edgeLabel;html=1;align=center;verticalAlign=middle;resizable=0;points=[];fontSize=12;fontFamily=Helvetica;fontColor=default;" parent="OBwwVleQ9KsO71YRy60R-66" vertex="1" connectable="0">
          <mxGeometry x="-0.9301" y="-1" relative="1" as="geometry">
            <mxPoint y="-1" as="offset" />
          </mxGeometry>
        </mxCell>
        <mxCell id="OBwwVleQ9KsO71YRy60R-83" value="1" style="edgeLabel;html=1;align=center;verticalAlign=middle;resizable=0;points=[];fontSize=12;fontFamily=Helvetica;fontColor=default;" parent="OBwwVleQ9KsO71YRy60R-66" vertex="1" connectable="0">
          <mxGeometry x="0.8454" relative="1" as="geometry">
            <mxPoint as="offset" />
          </mxGeometry>
        </mxCell>
        <mxCell id="OBwwVleQ9KsO71YRy60R-84" value="har" style="edgeLabel;html=1;align=center;verticalAlign=middle;resizable=0;points=[];fontSize=12;fontFamily=Helvetica;fontColor=default;" parent="OBwwVleQ9KsO71YRy60R-66" vertex="1" connectable="0">
          <mxGeometry x="-0.1633" relative="1" as="geometry">
            <mxPoint as="offset" />
          </mxGeometry>
        </mxCell>
        <mxCell id="OBwwVleQ9KsO71YRy60R-49" value="&lt;font color=&quot;#420000&quot;&gt;&lt;b&gt;Klubben Delfinen&lt;/b&gt;&lt;/font&gt;" style="swimlane;fontStyle=0;childLayout=stackLayout;horizontal=1;startSize=20;fillColor=none;horizontalStack=0;resizeParent=1;resizeParentMax=0;resizeLast=0;collapsible=1;marginBottom=0;whiteSpace=wrap;html=1;strokeColor=#0F8B8D;fontColor=#143642;labelBackgroundColor=none;" parent="1" vertex="1">
          <mxGeometry x="110" y="-230" width="140" height="52" as="geometry" />
        </mxCell>
        <mxCell id="OBwwVleQ9KsO71YRy60R-50" value="&lt;b&gt;Medlemskab&lt;/b&gt;" style="swimlane;fontStyle=0;childLayout=stackLayout;horizontal=1;startSize=26;fillColor=none;horizontalStack=0;resizeParent=1;resizeParentMax=0;resizeLast=0;collapsible=1;marginBottom=0;whiteSpace=wrap;html=1;strokeColor=#0F8B8D;fontColor=#143642;labelBackgroundColor=none;" parent="1" vertex="1">
          <mxGeometry x="130" y="370" width="140" height="86" as="geometry" />
        </mxCell>
        <mxCell id="OBwwVleQ9KsO71YRy60R-57" style="edgeStyle=orthogonalEdgeStyle;rounded=0;orthogonalLoop=1;jettySize=auto;html=1;fontFamily=Helvetica;fontSize=12;fontColor=default;" parent="OBwwVleQ9KsO71YRy60R-50" source="OBwwVleQ9KsO71YRy60R-51" edge="1">
          <mxGeometry relative="1" as="geometry">
            <mxPoint x="-100" y="41" as="targetPoint" />
          </mxGeometry>
        </mxCell>
        <mxCell id="OBwwVleQ9KsO71YRy60R-114" value="1" style="edgeLabel;html=1;align=center;verticalAlign=middle;resizable=0;points=[];fontSize=12;fontFamily=Helvetica;fontColor=default;" parent="OBwwVleQ9KsO71YRy60R-57" vertex="1" connectable="0">
          <mxGeometry x="-0.7627" relative="1" as="geometry">
            <mxPoint x="1" as="offset" />
          </mxGeometry>
        </mxCell>
        <mxCell id="OBwwVleQ9KsO71YRy60R-116" value="1" style="edgeLabel;html=1;align=center;verticalAlign=middle;resizable=0;points=[];fontSize=12;fontFamily=Helvetica;fontColor=default;" parent="OBwwVleQ9KsO71YRy60R-57" vertex="1" connectable="0">
          <mxGeometry x="0.6419" relative="1" as="geometry">
            <mxPoint as="offset" />
          </mxGeometry>
        </mxCell>
        <mxCell id="OBwwVleQ9KsO71YRy60R-117" value="har" style="edgeLabel;html=1;align=center;verticalAlign=middle;resizable=0;points=[];fontSize=12;fontFamily=Helvetica;fontColor=default;" parent="OBwwVleQ9KsO71YRy60R-57" vertex="1" connectable="0">
          <mxGeometry x="-0.0743" y="1" relative="1" as="geometry">
            <mxPoint x="1" as="offset" />
          </mxGeometry>
        </mxCell>
        <mxCell id="OBwwVleQ9KsO71YRy60R-51" value="Type" style="text;html=1;align=center;verticalAlign=middle;resizable=0;points=[];autosize=1;strokeColor=none;fillColor=none;fontColor=#143642;" parent="OBwwVleQ9KsO71YRy60R-50" vertex="1">
          <mxGeometry y="26" width="140" height="30" as="geometry" />
        </mxCell>
        <mxCell id="OBwwVleQ9KsO71YRy60R-52" value="Aldersgruppe" style="text;html=1;align=center;verticalAlign=middle;resizable=0;points=[];autosize=1;strokeColor=none;fillColor=none;fontColor=#143642;" parent="OBwwVleQ9KsO71YRy60R-50" vertex="1">
          <mxGeometry y="56" width="140" height="30" as="geometry" />
        </mxCell>
        <mxCell id="OBwwVleQ9KsO71YRy60R-53" value="&lt;b&gt;Kontingenter&lt;/b&gt;" style="swimlane;fontStyle=0;childLayout=stackLayout;horizontal=1;startSize=26;fillColor=none;horizontalStack=0;resizeParent=1;resizeParentMax=0;resizeLast=0;collapsible=1;marginBottom=0;whiteSpace=wrap;html=1;labelBackgroundColor=none;strokeColor=#0F8B8D;fontColor=#143642;" parent="1" vertex="1">
          <mxGeometry x="-110" y="385" width="140" height="56" as="geometry" />
        </mxCell>
        <mxCell id="OBwwVleQ9KsO71YRy60R-54" value="Følsomme oplysninger" style="text;html=1;align=center;verticalAlign=middle;resizable=0;points=[];autosize=1;strokeColor=none;fillColor=none;fontColor=#143642;labelBackgroundColor=none;" parent="OBwwVleQ9KsO71YRy60R-53" vertex="1">
          <mxGeometry y="26" width="140" height="30" as="geometry" />
        </mxCell>
        <mxCell id="OBwwVleQ9KsO71YRy60R-55" value="&lt;b&gt;Formand&lt;/b&gt;" style="swimlane;fontStyle=0;childLayout=stackLayout;horizontal=1;startSize=31;fillColor=none;horizontalStack=0;resizeParent=1;resizeParentMax=0;resizeLast=0;collapsible=1;marginBottom=0;whiteSpace=wrap;html=1;strokeColor=#0F8B8D;fontColor=#143642;labelBackgroundColor=none;" parent="1" vertex="1">
          <mxGeometry x="414" y="260" width="196" height="80" as="geometry" />
        </mxCell>
        <mxCell id="OBwwVleQ9KsO71YRy60R-70" style="edgeStyle=orthogonalEdgeStyle;rounded=0;orthogonalLoop=1;jettySize=auto;html=1;exitX=0.5;exitY=1;exitDx=0;exitDy=0;entryX=0.436;entryY=-0.077;entryDx=0;entryDy=0;entryPerimeter=0;fontFamily=Helvetica;fontSize=12;fontColor=default;" parent="1" source="OBwwVleQ9KsO71YRy60R-45" target="OBwwVleQ9KsO71YRy60R-11" edge="1">
          <mxGeometry relative="1" as="geometry" />
        </mxCell>
        <mxCell id="OBwwVleQ9KsO71YRy60R-96" value="0..*" style="edgeLabel;html=1;align=center;verticalAlign=middle;resizable=0;points=[];fontSize=12;fontFamily=Helvetica;fontColor=default;" parent="OBwwVleQ9KsO71YRy60R-70" vertex="1" connectable="0">
          <mxGeometry x="-0.77" y="3" relative="1" as="geometry">
            <mxPoint as="offset" />
          </mxGeometry>
        </mxCell>
        <mxCell id="OBwwVleQ9KsO71YRy60R-97" value="1" style="edgeLabel;html=1;align=center;verticalAlign=middle;resizable=0;points=[];fontSize=12;fontFamily=Helvetica;fontColor=default;" parent="OBwwVleQ9KsO71YRy60R-70" vertex="1" connectable="0">
          <mxGeometry x="0.6171" y="1" relative="1" as="geometry">
            <mxPoint y="-1" as="offset" />
          </mxGeometry>
        </mxCell>
        <mxCell id="OBwwVleQ9KsO71YRy60R-12" value="Konkurrencesvømmer" style="text;strokeColor=none;fillColor=none;align=left;verticalAlign=top;spacingLeft=4;spacingRight=4;overflow=hidden;rotatable=0;points=[[0,0.5],[1,0.5]];portConstraint=eastwest;whiteSpace=wrap;html=1;" parent="1" vertex="1">
          <mxGeometry x="-280" y="210" width="160" height="26" as="geometry" />
        </mxCell>
        <mxCell id="OBwwVleQ9KsO71YRy60R-101" style="edgeStyle=orthogonalEdgeStyle;rounded=0;orthogonalLoop=1;jettySize=auto;html=1;entryX=1.002;entryY=0.115;entryDx=0;entryDy=0;entryPerimeter=0;fontFamily=Helvetica;fontSize=12;fontColor=default;" parent="1" source="OBwwVleQ9KsO71YRy60R-55" target="OBwwVleQ9KsO71YRy60R-52" edge="1">
          <mxGeometry relative="1" as="geometry" />
        </mxCell>
        <mxCell id="OBwwVleQ9KsO71YRy60R-102" value="har" style="edgeLabel;html=1;align=center;verticalAlign=middle;resizable=0;points=[];fontSize=12;fontFamily=Helvetica;fontColor=default;" parent="OBwwVleQ9KsO71YRy60R-101" vertex="1" connectable="0">
          <mxGeometry x="-0.038" y="-2" relative="1" as="geometry">
            <mxPoint as="offset" />
          </mxGeometry>
        </mxCell>
        <mxCell id="OBwwVleQ9KsO71YRy60R-103" value="1" style="edgeLabel;html=1;align=center;verticalAlign=middle;resizable=0;points=[];fontSize=12;fontFamily=Helvetica;fontColor=default;" parent="OBwwVleQ9KsO71YRy60R-101" vertex="1" connectable="0">
          <mxGeometry x="-0.948" y="-3" relative="1" as="geometry">
            <mxPoint as="offset" />
          </mxGeometry>
        </mxCell>
        <mxCell id="OBwwVleQ9KsO71YRy60R-104" value="1" style="edgeLabel;html=1;align=center;verticalAlign=middle;resizable=0;points=[];fontSize=12;fontFamily=Helvetica;fontColor=default;" parent="OBwwVleQ9KsO71YRy60R-101" vertex="1" connectable="0">
          <mxGeometry x="0.8785" y="-1" relative="1" as="geometry">
            <mxPoint as="offset" />
          </mxGeometry>
        </mxCell>
        <mxCell id="OBwwVleQ9KsO71YRy60R-125" value="Extends" style="endArrow=block;endSize=16;endFill=0;html=1;rounded=0;fontFamily=Helvetica;fontSize=12;fontColor=default;entryX=1;entryY=0.5;entryDx=0;entryDy=0;exitX=0.5;exitY=1;exitDx=0;exitDy=0;strokeColor=#BB0C0C;" parent="1" source="OBwwVleQ9KsO71YRy60R-47" target="OBwwVleQ9KsO71YRy60R-2" edge="1">
          <mxGeometry x="-0.0875" width="160" relative="1" as="geometry">
            <mxPoint x="470" y="150" as="sourcePoint" />
            <mxPoint x="630" y="150" as="targetPoint" />
            <mxPoint x="1" as="offset" />
          </mxGeometry>
        </mxCell>
        <mxCell id="OBwwVleQ9KsO71YRy60R-130" value="1&lt;br&gt;" style="edgeLabel;html=1;align=center;verticalAlign=middle;resizable=0;points=[];fontSize=12;fontFamily=Helvetica;fontColor=default;" parent="OBwwVleQ9KsO71YRy60R-125" vertex="1" connectable="0">
          <mxGeometry x="-0.7822" y="1" relative="1" as="geometry">
            <mxPoint as="offset" />
          </mxGeometry>
        </mxCell>
        <mxCell id="OBwwVleQ9KsO71YRy60R-131" value="1..*" style="edgeLabel;html=1;align=center;verticalAlign=middle;resizable=0;points=[];fontSize=12;fontFamily=Helvetica;fontColor=default;" parent="OBwwVleQ9KsO71YRy60R-125" vertex="1" connectable="0">
          <mxGeometry x="0.7135" y="2" relative="1" as="geometry">
            <mxPoint as="offset" />
          </mxGeometry>
        </mxCell>
        <mxCell id="OBwwVleQ9KsO71YRy60R-126" value="Extends" style="endArrow=block;endSize=16;endFill=0;html=1;rounded=0;fontFamily=Helvetica;fontSize=12;fontColor=default;exitX=1;exitY=0.5;exitDx=0;exitDy=0;fillColor=#e1d5e7;strokeColor=#c02626;entryX=0;entryY=0.5;entryDx=0;entryDy=0;" parent="1" source="OBwwVleQ9KsO71YRy60R-46" target="OBwwVleQ9KsO71YRy60R-1" edge="1">
          <mxGeometry x="-0.0875" width="160" relative="1" as="geometry">
            <mxPoint x="90" y="-68" as="sourcePoint" />
            <mxPoint x="70" y="-60" as="targetPoint" />
            <mxPoint x="1" as="offset" />
          </mxGeometry>
        </mxCell>
        <mxCell id="OBwwVleQ9KsO71YRy60R-132" value="1..*" style="edgeLabel;html=1;align=center;verticalAlign=middle;resizable=0;points=[];fontSize=12;fontFamily=Helvetica;fontColor=default;" parent="OBwwVleQ9KsO71YRy60R-126" vertex="1" connectable="0">
          <mxGeometry x="0.82" y="-4" relative="1" as="geometry">
            <mxPoint y="-1" as="offset" />
          </mxGeometry>
        </mxCell>
        <mxCell id="OBwwVleQ9KsO71YRy60R-133" value="1..*" style="edgeLabel;html=1;align=center;verticalAlign=middle;resizable=0;points=[];fontSize=12;fontFamily=Helvetica;fontColor=default;" parent="OBwwVleQ9KsO71YRy60R-126" vertex="1" connectable="0">
          <mxGeometry x="-0.8468" y="-3" relative="1" as="geometry">
            <mxPoint as="offset" />
          </mxGeometry>
        </mxCell>
        <mxCell id="OBwwVleQ9KsO71YRy60R-127" value="Extends" style="endArrow=block;endSize=16;endFill=0;html=1;rounded=0;fontFamily=Helvetica;fontSize=12;fontColor=default;exitX=1;exitY=0.5;exitDx=0;exitDy=0;strokeColor=#CE1212;entryX=0;entryY=0.5;entryDx=0;entryDy=0;" parent="1" source="OBwwVleQ9KsO71YRy60R-11" edge="1" target="OBwwVleQ9KsO71YRy60R-1">
          <mxGeometry x="-0.0875" width="160" relative="1" as="geometry">
            <mxPoint x="50" y="244" as="sourcePoint" />
            <mxPoint x="-10" y="180" as="targetPoint" />
            <mxPoint x="1" as="offset" />
          </mxGeometry>
        </mxCell>
        <mxCell id="OBwwVleQ9KsO71YRy60R-128" value="1..*" style="edgeLabel;html=1;align=center;verticalAlign=middle;resizable=0;points=[];fontSize=12;fontFamily=Helvetica;fontColor=default;" parent="OBwwVleQ9KsO71YRy60R-127" vertex="1" connectable="0">
          <mxGeometry x="0.7917" y="3" relative="1" as="geometry">
            <mxPoint as="offset" />
          </mxGeometry>
        </mxCell>
        <mxCell id="OBwwVleQ9KsO71YRy60R-129" value="1..*" style="edgeLabel;html=1;align=center;verticalAlign=middle;resizable=0;points=[];fontSize=12;fontFamily=Helvetica;fontColor=default;" parent="OBwwVleQ9KsO71YRy60R-127" vertex="1" connectable="0">
          <mxGeometry x="-0.8365" y="-4" relative="1" as="geometry">
            <mxPoint as="offset" />
          </mxGeometry>
        </mxCell>
      </root>
    </mxGraphModel>
  </diagram>
</mxfile>
